<?xml version="1.0" standalone="no"?><!DOCTYPE svg PUBLIC "-//W3C//DTD SVG 1.1//EN" "http://www.w3.org/Graphics/SVG/1.1/DTD/svg11.dtd">
<svg class="icon" width="14px" height="14px" viewBox="0 0 1025 1024" version="1.1"
  xmlns="http://www.w3.org/2000/svg">
  <path fill="#bdc1c6" d="M97.15256 99.450602V926.848171h827.543662V493.098126c0-29.656874 13.805786-53.689169 43.827893-53.689169a53.689169 53.689169 0 0 1 53.689169 53.689169v426.518443a104.456478 104.456478 0 0 1-104.310385 104.310385H104.311116A104.456478 104.456478 0 0 1 0.000731 919.689615V106.755251A104.091245 104.091245 0 0 1 104.311116 2.15268h449.089808a53.689169 53.689169 0 0 1 53.689169 53.689169c0 29.656874-24.032295 43.827893-53.689169 43.827892H97.15256z" />
  <path fill="#bdc1c6" d="M419.360619 680.024088l586.92853-586.92853A53.323936 53.323936 0 1 0 932.43915 16.177606l-1.533976 1.533976L343.976643 604.713159a53.323936 53.323936 0 0 0 1.533976 75.383976 52.374332 52.374332 0 0 0 73.85 0z" />
</svg>