<?xml version="1.0" standalone="no"?><!DOCTYPE svg PUBLIC "-//W3C//DTD SVG 1.1//EN" "http://www.w3.org/Graphics/SVG/1.1/DTD/svg11.dtd">
<svg class="icon" width="48px" height="48.00px" viewBox="0 0 1024 1024" version="1.1"
  xmlns="http://www.w3.org/2000/svg">
  <path fill="#737373" d="M956.731077 893.164308a11.264 11.264 0 0 0 9.452308-11.027693V68.135385a11.342769 11.342769 0 0 0-11.34277-11.264c-0.472615 0-141.312 25.363692-422.596923 75.933538-13.390769 2.363077-27.096615 2.363077-40.487384 0L71.128615 57.186462A11.421538 11.421538 0 0 0 58.052923 66.166154L57.737846 882.057846c0 5.513846 4.017231 10.24 9.452308 11.106462l444.809846 73.019077 444.731077-73.019077zM501.76 77.508923a57.265231 57.265231 0 0 0 20.322462 0l420.627692-75.776a68.529231 68.529231 0 0 1 55.768615 14.651077c15.517538 12.760615 24.418462 31.744 24.497231 51.830154v813.843692a67.741538 67.741538 0 0 1-57.028923 66.717539L512 1023.212308l-454.025846-74.436923a67.741538 67.741538 0 0 1-56.950154-66.717539V68.214154c0-20.007385 8.979692-38.990769 24.418462-51.830154a68.529231 68.529231 0 0 1 55.847384-14.572308l420.548923 75.618462z" />
  <path fill="#737373" d="M582.262154 598.409846c-21.897846-16.305231-43.795692-27.096615-71.207385-27.096615-11.027692 0-21.976615 0-32.925538 5.356307L412.435692 478.916923c27.411692-27.096615 38.360615-59.707077 38.360616-97.752615 0.315077-36.233846-14.020923-70.892308-39.778462-96.492308a136.270769 136.270769 0 0 0-97.201231-39.384615 136.270769 136.270769 0 0 0-97.28 39.384615 133.986462 133.986462 0 0 0-39.699692 96.492308c0 76.091077 65.772308 135.876923 136.979692 135.876923 16.462769 0 32.925538-5.513846 49.309539-10.870154l65.772308 97.831385c-16.541538 21.740308-27.490462 48.836923-27.490462 76.012307 0 59.785846 49.388308 108.701538 109.646769 108.701539a109.489231 109.489231 0 0 0 109.489231-108.701539c0-16.305231-5.356308-27.175385-5.356308-38.045538l98.619077-81.447385c10.948923 5.356308 27.332923 10.870154 43.795693 10.870154 43.795692 0 82.156308-38.124308 82.156307-81.604923 0-43.401846-38.360615-81.447385-82.156307-81.447385-43.795692 0-82.235077 38.045538-82.235077 81.447385 0 10.870154 0 16.384 5.513846 27.254154L582.262154 598.409846z m-350.601846-217.403077c0-43.401846 38.281846-81.447385 82.156307-81.447384 43.795692 0 82.156308 38.045538 82.156308 81.526153a80.344615 80.344615 0 0 1-82.156308 81.526154A80.344615 80.344615 0 0 1 231.581538 381.085538z m279.394461 353.28c-32.925538 0-54.823385-21.740308-54.823384-54.350769 0-32.610462 21.897846-54.350769 54.823384-54.350769 32.925538 0 54.744615 21.740308 54.744616 54.350769 0 32.610462-21.897846 54.350769-54.744616 54.350769z m246.547693-271.753846c16.541538 0 27.332923 10.948923 27.332923 27.175385 0 16.384-10.948923 27.254154-27.332923 27.254154-16.462769 0-27.411692-10.870154-27.411693-27.254154 0-16.305231 10.948923-27.096615 27.411693-27.096616z" />
</svg>