<?xml version="1.0" standalone="no"?><!DOCTYPE svg PUBLIC "-//W3C//DTD SVG 1.1//EN" "http://www.w3.org/Graphics/SVG/1.1/DTD/svg11.dtd">
<svg class="icon" width="24px" height="24.00px" viewBox="0 0 1024 1024" version="1.1"
  xmlns="http://www.w3.org/2000/svg">
  <path fill="#fff" d="M747.752 278.368l0.557 0.551 204.1 207.13 0.109 0.112a29.965 29.965 0 0 1 0.339 0.352l0.105 0.113 0.135 0.145a29.784 29.784 0 0 1 5.837 9.3A29.716 29.716 0 0 1 961 507v0.122l-0.002 0.224L961 507a30.417 30.417 0 0 1-0.01 0.799 29.72 29.72 0 0 1-2.102 10.249l-0.049 0.12a29.64 29.64 0 0 1-0.886 1.985l-0.005 0.01a29.756 29.756 0 0 1-5.539 7.787l-204.1 207.13-0.557 0.552c-11.629 11.209-30.153 11.176-41.74-0.211-11.775-11.57-11.927-30.482-0.34-42.24l154.023-156.312H95.91C79.39 536.87 66 523.496 66 507c0-16.26 13.011-29.487 29.204-29.861l0.706-0.008 763.785-0.001-154.024-156.31c-11.586-11.759-11.434-30.67 0.34-42.24 11.588-11.388 30.112-11.42 41.74-0.212z" />
</svg>