<?xml version="1.0" standalone="no"?><!DOCTYPE svg PUBLIC "-//W3C//DTD SVG 1.1//EN" "http://www.w3.org/Graphics/SVG/1.1/DTD/svg11.dtd">
<svg class="icon" width="17px" height="17px" viewBox="0 0 1024 1024" version="1.1"
  xmlns="http://www.w3.org/2000/svg">
  <path fill="#4285f4" d="M237.696 73.152a36.544 36.544 0 0 1 36.544 36.544v804.544a36.544 36.544 0 0 1-36.544 36.544h-128a36.544 36.544 0 0 1-36.544-36.544V109.696a36.544 36.544 0 0 1 36.544-36.544h128m0-73.152h-128A109.696 109.696 0 0 0 0 109.696v804.544A109.696 109.696 0 0 0 109.696 1024h128a109.696 109.696 0 0 0 109.696-109.696V109.696A109.696 109.696 0 0 0 237.696 0z m713.152 73.152v256H512v-256h438.848m0-73.152H512a73.152 73.152 0 0 0-73.152 73.152v256A73.152 73.152 0 0 0 512 402.24h438.848A73.152 73.152 0 0 0 1024 329.152v-256A73.152 73.152 0 0 0 950.848 0zM621.696 603.392v347.456H512V603.392h109.696m0-73.152H512a73.152 73.152 0 0 0-73.152 73.152v347.456A73.152 73.152 0 0 0 512 1024h109.696a73.152 73.152 0 0 0 73.152-73.152V603.392a73.152 73.152 0 0 0-73.152-73.152z m329.152 73.152v347.456h-109.696V603.392h109.696m0-73.152h-109.696A73.152 73.152 0 0 0 768 603.392v347.456A73.152 73.152 0 0 0 841.152 1024h109.696A73.152 73.152 0 0 0 1024 950.848V603.392a73.152 73.152 0 0 0-73.152-73.152z" />
</svg>